Plot: In Paris, a young employee in the office of the US Ambassador hooks up with an American spy looking to stop a terrorist attack in the city. 

Cast: 
John Travolta ... Charlie Wax
Jonathan Rhys Meyers ... James Reece
Kasia Smutniak ... Caroline
Richard Durden ... Ambassador Bennington
Yin Bing ... M. Wong
Amber Rose Revah ... Nichole
Eric Godon ... Foreign Minister
François Bredon ... The Thug
Chems Dahmani ... Rashid (as Chems Eddine Dahmani)
Sami Darr ... The Pimp
Julien Hagnery ... Chinese Punk
Mostéfa Stiti ... Dir Yasin
Rebecca Dayan ... Foreign Minister's Aide
Michaël Vander-Meiren ... Airport Security Official
Didier Constant ... Customs Official

Genre: Action | Crime | Thriller


from.paris.with.love.lkrg.mp4

File Size

Format : MPEG-4
Format profile : Base Media
Codec ID : isom
File size : 2.32 GiB
Duration : 1h 32mn
Overall bit rate : 3 585 Kbps

Video
ID : 1
Format : AVC
Format/Info : Advanced Video Codec
Format profile : High@L4.1
Format settings, CABAC : Yes
Format settings, ReFrames : 3 frames
Codec ID : avc1
Codec ID/Info : Advanced Video Coding
Duration : 1h 32mn
Bit rate mode : Variable
Bit rate : 3 006 Kbps
Maximum bit rate : 15.7 Mbps
Width : 1 264 pixels
Height : 528 pixels
Display aspect ratio : 2.35:1
Frame rate mode : Constant
Frame rate : 23.976 fps
Resolution : 24 bits
Colorimetry : 4:2:0
Scan type : Progressive
Bits/(Pixel*Frame) : 0.188
Stream size : 1.94 GiB (84%)

Audio #1
ID : 2
Format : AAC
Format/Info : Advanced Audio Codec
Format version : Version 4
Format profile : LC
Format settings, SBR : No
Codec ID : 40
Duration : 1h 32mn
Bit rate mode : Variable
Bit rate : 128 Kbps
Maximum bit rate : 138 Kbps
Channel(s) : 2 channels
Channel positions : L R
Sampling rate : 48.0 KHz
Resolution : 16 bits
Stream size : 84.8 MiB (4%)

Audio #2
ID : 3
Format : AAC
Format/Info : Advanced Audio Codec
Format version : Version 4
Format profile : LC
Format settings, SBR : No
Codec ID : 40
Duration : 1h 32mn
Bit rate mode : Variable
Bit rate : 448 Kbps
Maximum bit rate : 465 Kbps
Channel(s) : 6 channels
Channel positions : Front: L C R, Rear: L R, LFE
Sampling rate : 48.0 KHz
Resolution : 16 bits
Stream size : 297 MiB (12%)

Text
ID : 4
Format : Timed text
Codec ID : tx3g
Duration : 1h 27mn
Bit rate mode : Variable
Bit rate : 61 bps
Stream size : 39.0 KiB (0%)

English SRT : Yes

Release Date:2010

Language:English
